<svg xmlns="http://www.w3.org/2000/svg" viewBox="0 0 525 300"><path d="M21.9 93.1l-2.6 14.2c-1 5.8-4.6 10.4-9 12.1 3.2 1.2 5.7 6.5 4.7 12.4L12.5 146c-.4 2.6.2 3.5 2.3 3.5H17c1 0 1.5.7 1.3 1.7l-1.5 8.2c-.1.9-.7 1.3-1.6 1.3H11c-7.7 0-11.7-4.9-10.1-14l2.5-14.2c.8-4 .7-7.6-3-8.4-1-.2-1.5-.6-1.3-1.7l1.1-7c.1-.8.7-1.2 1.6-1.4 3.9-.9 6-5.3 6.6-9.4l2.5-14.1C12.6 81 16.6 77.2 25 77.2h4.7c1 0 1.5.6 1.4 1.7l-1.4 8.2c-.2.9-.7 1.3-1.7 1.3h-1.5c-2.2.2-4.1 1.8-4.6 4.7zm84.7-28.7l-14.2 80.9c-.1 1.1-.7 1.9-1.9 2.2-7 2.8-16.6 4.6-24.7 4.6-17.9 0-27.8-12.2-25-28.7l2.6-14.2C46 94.4 57.3 84.3 72 84.3c4.6 0 8.9 1 12 2.6l4.1-23c.2-1.2 1-2 2.2-2h14.3c1.5.1 2.3 1.1 2 2.5zm-25.3 38c-2-1.4-5.1-2.1-8.2-2.1-5.9 0-9.8 3.7-11.1 11.3l-2.4 13.2c-1.5 7.8 1.2 10.9 7.9 10.9 3 0 6.2-.5 8.2-1.4 0-.1 5.6-32 5.6-31.9zm86.3 42.1c-6.7 4.6-15.1 7.5-25.8 7.5-16.2 0-27.5-9.9-24.6-26l3.2-17.9c3-16.2 15.8-23.7 30.8-23.7 15.8 0 27.1 8.4 23.7 26.6l-2.1 12c-.2 1.2-1 1.9-2.2 1.9h-34.4l-.4 1.7c-1.2 6.6 1.7 9.8 8.5 9.8 5.4 0 11.1-2 16.1-4.9 1.2-.9 2.2-.7 2.8.6l5.1 9.5c.5 1.2.4 2.3-.7 2.9zm-29.2-32h18.1l.6-3.1c.9-4.9-1.2-9.3-7.5-9.3-5.3 0-9.4 3.2-10.5 9l-.7 3.4zm103.1 20.4c2.6-14.5-9.3-20.4-18.8-22.5-5.9-1.4-9.9-2.5-9.2-6.2.5-3.1 3.3-4.1 7.9-4.1 5.2 0 9.9 1.1 13.7 3.3 1.2.6 2.2.5 3-.6l7.3-9.8c.9-1.1.7-2.2-.5-3-6.7-3.8-13.2-5.7-21.8-5.7-15 0-25.4 5.3-27.9 17.8-2.7 13.4 6.9 20.7 19 23.1 4.9 1.1 9.3 2.1 8.4 5.9-.6 2.8-3.6 4.7-9.5 4.7-5.8 0-11.3-1.7-16.1-5.3-1.1-.7-2.1-.6-3 .5l-7 9.6c-.7 1-.7 2.1.4 3 6.8 5.6 14.8 8.3 25.1 8.3 15.6.2 26.6-5.9 29-19zm73-18.8l-5.6 31.3c-.2 1.1-.7 2-1.9 2.4-7 2.5-16.2 4.3-25.7 4.3-17.3 0-26.1-9.9-23.6-23.4 2.1-12 12.2-17.3 28.1-17.3 3.7 0 7.4.4 10.5 1l.2-2c1.1-6.1-.6-9.4-8.4-9.4-5.4 0-11 1.1-14.7 2.8-1.4.6-2.4.4-2.8-1l-3.8-10.1c-.4-1.1-.4-2 .4-2.5 5.9-3.6 15.2-5.8 25.2-5.8 16.8 0 25.5 11.2 22.1 29.7zM294 124.9c-2.3-.5-5.2-.9-7.9-.9-6.1 0-9.3 2-9.9 5.7-.9 4.7 2.1 6.9 7.5 6.9 2.8 0 6.3-.5 8.5-1l1.8-10.7zM377.1 61c-2.1-.4-4.9-.5-7.8-.5-15.3 0-24.6 7.9-27.3 23.2l-11.5 64.4c-.2 1.4.5 2.4 2 2.4h14.3c1.4 0 2.1-.7 2.2-2l8-44.9h11.4c1.4 0 2.1-.7 2.4-2l2-11.4c.1-1.5-.6-2.4-2-2.4H360l.4-2.5c1.1-5.8 4.1-8.7 9.3-8.7 1.6 0 3.7.1 5.2.4 1.1.1 1.9-.4 2-1.9l2.1-11.7c.1-1.3-.5-2.2-1.9-2.4zm31 25.2h-14.3c-1.4 0-2.1.6-2.3 1.9l-10.5 60c-.2 1.4.6 2.4 2 2.4h14.3c1.2 0 2-.7 2.2-2l10.8-60.1c.1-1.4-.8-2.2-2.2-2.2zm14.3-27.5h-12.9c-1.1 0-2 .4-2.7 1.2l-13.2 16.3c-1.1 1.4-.6 2.6 1.2 2.6h9.6c1.1 0 1.9-.2 2.6-1.1l16.4-16.3c1.5-1.3.8-2.7-1-2.7zm61.2 53.2l-2.8 15.6c-2.8 15.6-14.1 24.5-32.3 24.5-16.6 0-26.6-12.4-23.7-28.1l2.6-15.3c2.7-15 14.8-24.2 32-24.2 16.9 0 26.8 12.5 24.2 27.5zm-26.3-11.3c-5.9 0-10.1 3.7-11.1 9.3l-2.8 16c-1.1 6.1 1.5 10 7.3 10 6.4 0 10.4-3.5 11.4-9.3l2.8-15.8c.9-5.7-1.8-10.3-7.6-10.2zm67.2 13.3c-3.7-.8-3.8-4.4-3-8.4l2.5-14.2c1.6-9.1-2.4-14-10.1-14h-4.2c-.9 0-1.5.4-1.6 1.3l-1.5 8.2c-.2 1 .4 1.7 1.3 1.7h2.1c2.1 0 2.7.9 2.3 3.5l-2.5 14.2c-1.1 5.8 1.5 11.1 4.7 12.4-4.4 1.7-8 6.3-9 12.1l-2.6 14.2c-.5 2.9-2.4 4.5-4.5 4.5h-1.5c-1 0-1.5.4-1.7 1.3l-1.4 8.2c-.1 1.1.4 1.7 1.4 1.7h4.7c8.4 0 12.5-3.6 14.1-13.2l2.5-14.1c.6-4.1 2.7-8.5 6.6-9.4.9-.2 1.5-.6 1.6-1.4l1.1-7c.1-1.1-.4-1.5-1.3-1.6zm-481 51.9H33.2c-.9 0-1.4.5-1.6 1.4l-7.8 43.9c-1.9 11.5 3 19 12.5 19 1.9 0 3.4-.2 4.7-.4.6-.1 1-.5 1.1-1.4l1.4-8.4c.2-1.1-.4-1.5-1.4-1.4h-1.8c-3.2 0-4.2-2.4-3.4-6.6l7.8-44.3c.2-1.1-.3-1.8-1.2-1.8zM95 203l-4 22.3c-.2.8-.5 1.4-1.3 1.7-5 1.8-11.6 3.1-18.4 3.1-12.4 0-18.6-7.1-16.9-16.7 1.5-8.6 8.7-12.4 20.1-12.4 2.7 0 5.3.3 7.5.7l.2-1.4c.8-4.3-.4-6.7-6-6.7-3.9 0-7.9.8-10.5 2-1 .4-1.7.3-2-.7l-2.7-7.2c-.3-.8-.3-1.4.3-1.8 4.2-2.6 10.9-4.2 18-4.2 11.9.1 18.1 8 15.7 21.3zm-14.7 7.6c-1.7-.4-3.7-.6-5.7-.6-4.3 0-6.6 1.4-7.1 4.1-.6 3.4 1.5 4.9 5.4 4.9 2 0 4.5-.4 6.1-.7 0-.1 1.3-7.7 1.3-7.7zm53.6-26.6h-7.1l.5-10.5c.1-1-.4-1.6-1.5-1.6h-8.7c-1 0-1.5.5-1.7 1.4l-6.6 37.9c-2.3 12.9 4 18.8 13.8 18.8 1.5 0 3.2-.2 4.5-.4.9-.1 1.3-.6 1.5-1.5l1.4-8.2c.3-1.1-.4-1.6-1.4-1.5h-2.4c-3.6 0-5-2.1-4.3-6.1l3-17h7.2c1 0 1.5-.4 1.7-1.4l1.4-8.1c.2-1-.3-1.8-1.3-1.8zm48.8 19l-4 22.3c-.2.8-.5 1.4-1.3 1.7-5 1.8-11.6 3.1-18.4 3.1-12.4 0-18.6-7.1-16.9-16.7 1.5-8.6 8.7-12.4 20.1-12.4 2.7 0 5.3.3 7.5.7l.2-1.4c.8-4.3-.4-6.7-6-6.7-3.9 0-7.9.8-10.5 2-1 .4-1.7.3-2-.7l-2.7-7.2c-.3-.8-.3-1.4.3-1.8 4.2-2.6 10.9-4.2 18-4.2 11.9.1 18.1 8 15.7 21.3zm-14.7 7.6c-1.7-.4-3.7-.6-5.7-.6-4.3 0-6.6 1.4-7.1 4.1-.6 3.4 1.5 4.9 5.4 4.9 2 0 4.5-.4 6.1-.7l1.3-7.7zm75.9-28.8c-4.4 0-8.9 1.3-13.1 3.5-2.7-2.2-6.5-3.5-11-3.5-5.5 0-11.9 1.3-17.1 3.5-.8.4-1.1.9-1.3 1.6l-7.3 40.4c-.2 1.1.4 1.7 1.3 1.7h10.2c.9 0 1.4-.4 1.6-1.4l6-33.1c1.2-.6 3.2-1.1 5.1-1.1 4 0 5.8 2.5 4.9 8.1l-4.5 25.8c-.2 1 .4 1.7 1.4 1.7h10c.9 0 1.5-.5 1.6-1.4l4.3-24.2c.5-3 .5-5.9.1-8.4 1.6-.9 3.8-1.6 5.9-1.6 4.2 0 6.3 2.5 5.3 8.1l-4.5 25.8c-.1 1 .4 1.7 1.4 1.7h10c.9 0 1.5-.5 1.6-1.4l4.4-24.2c2.1-12.6-4.1-21.6-16.3-21.6zm67 48.3h-39.4c-.9 0-1.5.4-1.6 1.4l-1.4 8.2c-.2 1 .4 1.7 1.3 1.7h39.4c.9 0 1.5-.5 1.6-1.4l1.5-8.2c.2-1.1-.4-1.7-1.4-1.7z" fill="#fff"/></svg>