<svg xmlns="http://www.w3.org/2000/svg" viewBox="0 0 526.8 381.3" enable-background="new 0 0 526.8 381.3"><style type="text/css">.st0{fill:#ffffff;}</style><path class="st0" d="M249.2 114.1v44.7l8.2 24.6 13.5 4.9-3.7-33.5 19.3-30.1 12.2-1.4 13.5-30.7-25.8-11-.2-.1-3.2-9.4-23.6-16.8-17.1-.4-4.4 3.5-8.2-6.2-.1-6.3-4.8-2.5 2.5-8-5.3-2.4-8.2 4.2-7.8-6.8 4.5-9.8-34.7-14.5h-1l17.4 32.2s.7 1.1 1.9 1.5l24.6 11.1 16 17-8.7 21 11 20.9 12.2 4.3z"/><path class="st0" d="M180.1 85c1.4-3.2-.5-7-.5-7-5.3-7.7-13.8-3.5-13.8-3.5l-58.8 22c-5.1 1.7-6.1 3.5-6.1 3.5-2 2.8-1.6 6.7-1.6 6.7s-.4 3.9 1.6 6.7c0 0 1 1.8 6.1 3.5l58.7 21.9s8.5 4.3 13.8-3.4c0 0 2-3.8.5-7 0 0-1.7-4.5-6.1-5.8l-42.1-15.8 42.2-16c4.4-1.3 6.1-5.8 6.1-5.8zm248.1 15.1s-1-1.8-6.1-3.5l-58.7-21.9s-8.5-4.3-13.8 3.5c0 0-2 3.8-.5 7 0 0 1.7 4.5 6.1 5.8l42.1 15.8-42.1 15.8c-4.4 1.3-6.1 5.8-6.1 5.8-1.4 3.2.5 7 .5 7 5.3 7.7 13.8 3.5 13.8 3.5l58.7-21.9c5.1-1.7 6.1-3.5 6.1-3.5 2-2.8 1.6-6.7 1.6-6.7s.3-3.9-1.6-6.7z"/><path class="st0" d="M69.6 349.4l-.7-.7s-1.5-1.4-3.5.5l-7.9 7.2h-29.3v-58.4s-1.3-3.4-4.3-3.4h-11.9s-3.6 1.2-3.6 3v73.2s-.5 4.4 4.2 4.4h51.7s2.2.1 3.8-1l11.4-10.8.6-.7s1.5-1.5-.4-3.6l-10.1-9.7zm-57.5-63.7h44.2s1.9-.2 2.9-1l12-12s1-.9 1-1.8v-27.7s-.2-2.1-1.5-3.8l-12.1-12.2-.1-.1h-48.2s-1.6 0-1.6 1.2v54.8c.1 0 .3 2.6 3.4 2.6zm3.8-52.1h39.7l8.4 8.5s1 1 1 2.9v24.3l-9.9 9.9h-39.2v-45.599999999999994zm448.1 51.1s.6.9 1.9.9h37.5c1.3 0 1.9-.9 1.9-.9l12.1-12c.8-.8 1-1.9 1-1.9v-29.6c0-.8-.4-1.2-.4-1.2l-13.2-12.9c-.8-.7-2.3-.7-2.3-.7h-35.8s-1.5 0-2.3.7l-13.2 12.9s-.4.4-.4 1.2v29.6s.2 1.1 1 1.9l12.2 12zm-6-41.7l10.2-10.1h32.8l10.2 10.1v26.8l-9.4 9.4h-34.5l-9.4-9.4v-26.8zm-277.9 42.1c.4.6 1.5.5 1.5.5h32.1c2.2 0 3.2-1.1 3.2-1.1l7.2-8.9c1.8-2.4 0-3.4 0-3.4l-41.5-34.5.1-.2 3.1-4.5h26.7l5 5.5c1 1.3 2.1.5 2.1.5l3.1-3.2c1.2-1.2-.7-2.9-.7-2.9l-1.6-1.7-4.3-4.2c-.8-.8-2.2-.6-2.2-.6h-29.8c-1.1-.2-2.9 1.2-2.9 1.2l-1.9 2.3-5.7 7.1c-1.1 1.5-.1 2.9-.1 2.9l41.3 33.9c.9.6.6 1.6.6 1.6l-2.9 3.6h-29l-.6-.7-5.6-5.1c-.8-.6-1.7.5-1.7.5l-2.8 3.1c-.6.8 0 1.6 0 1.6l7.3 6.7zm152.6.5h1.6s2.8 0 2.8-1.6v-24.2h34.9s1.3-.2 1.3-1.2v-4.7s-.3-1.2-1.2-1.2h-34.9v-19.1h32.6l2.9 2.9 1.1 1.2s1.1.9 1.9.1l3.4-3.6s.6-.6 0-1.3l-6.1-5.8h-41.5s-1.4.1-1.4 1.3v55.6c-.1 0 .1 1.6 2.6 1.6zm95.9-1.7v-3.5s-.5-1.3-2-1.3h-10v-45.5h10.6s1.4-.4 1.4-1.3v-4.5s-.5-.7-1.5-.7h-28.1c-1 0-1.5.7-1.5.7v4.5c0 .9 1.4 1.3 1.4 1.3h10.6v45.5h-10c-1.5 0-2 1.3-2 1.3v3.5c0 1.1 1.9 1.7 1.9 1.7h27.3s1.9-.5 1.9-1.7zm-63.7 13s-2.9-2.9-6.2-2.9h-27.2c-3.3 0-6.2 2.9-6.2 2.9l-19.6 19.7c-1.5 1.5-1.7 3.7-1.7 3.7v52.6c0 1.6 2.3 2.2 2.3 2.2h15.5c1.8 0 2.2-2.4 2.2-2.4v-17.1h42.3v17.1s.4 2.4 2.2 2.4h15.5s2.3-.6 2.3-2.2v-52.6s-.2-2.2-1.7-3.7l-19.7-19.7zm1.4 42h-42.3v-13.5l12.9-13.1h16.4l12.9 13.1v13.5zm-223.7-53.3c2.1 0 2.9-1 2.9-1l5.5-5.3c1.8-1.7.5-2.7.5-2.7l-2.8-2.7c-1.3-1.3-2.3 0-2.3 0l-4.9 5.2h-35.5v-20h34.6c1.7 0 2.2-1.5 2.2-1.5v-3.2c-.6-1.3-2.1-1.7-2.1-1.7h-34.7v-19.1h34.9l4.9 4.9c1.3 1.3 2.1.5 2.1.5l3.7-3.8c.4-.9-1-2-1-2l-5.6-5.5c-.6-.8-1.3-.7-1.3-.7h-42.6c-2.1 0-2.3 1.4-2.3 1.4v54.9c.3 2 2.7 2.1 2.7 2.1h41.1zm144.1-57.9s-1.1-1.2-2.4-1.2h-18.8c-1.3 0-2.4 1.2-2.4 1.2l-15.4 15.8c-.8.8-.7 1.4-.7 1.4v38.3c0 2.5 2.6 2.4 2.6 2.4h2.4c1.8 0 2.2-2.3 2.2-2.3v-17l41.6.2v16.8s.4 2.3 2.2 2.3h2.4s2.6.2 2.6-2.4v-38.3s.1-.6-.7-1.4l-15.6-15.8zm9 33.2l-41.6-.2v-14.8l12.6-13h16.4l12.6 13v15zm221.7 40.9l-10.5-9.8s-1-1.2-2.3 0l-37.5 39.4-37.5-39.4c-1.3-1.2-2.3 0-2.3 0l-10.5 9.8c-1 1.2-.9 2.2-.9 2.2v68.3c0 2.6 2.2 2.9 2.2 2.9h14.3c2.9 0 2.9-2.9 2.9-2.9v-46.8l30.3 32.7c.5.7 1.1.6 1.1.6h.9s.6.1 1.1-.6l30.3-32.7v46.8s0 2.9 2.9 2.9h14.3s2.2-.3 2.2-2.9v-68.3s0-1-1-2.2zm-235.2-4.5s-1.4-1.7-3.8-1.7h-69.4c-2.4 0-3.8 1.7-3.8 1.7l-8.6 8.6c-1.8 1.8-.4 3-.4 3l.6.6 11.2 11.7c1.7 1.7 3.4-.2 3.4-.2l6.6-6.9h15.8l-.1 58.7c0 1.6 2 2.3 2 2.3h16s2-.7 2-2.3l-.1-58.7h15.8l6.6 6.9s1.7 1.9 3.4.2l11.2-11.7.6-.6s1.3-1.3-.4-3l-8.6-8.6zm-120.3-.4s-2.9-2.9-6.2-2.9h-27.2c-3.3 0-6.2 2.9-6.2 2.9l-19.6 19.7c-1.5 1.5-1.7 3.7-1.7 3.7v52.6c0 1.6 2.3 2.2 2.3 2.2h15.5c1.8 0 2.2-2.4 2.2-2.4v-17.1h42.3v17.1s.4 2.4 2.2 2.4h15.5s2.3-.6 2.3-2.2v-52.6s-.2-2.2-1.7-3.7l-19.7-19.7zm1.3 42h-42.3v-13.5l12.9-13.1h16.4l12.9 13.1v13.5z"/></svg>