<svg xmlns="http://www.w3.org/2000/svg" viewBox="0 0 330.5 331" enable-background="new 0 0 330.5 331"><path d="M80.8 153.3c1.4-3.2-.5-7-.5-7-5.3-7.7-13.8-3.5-13.8-3.5l-58.7 22c-5.1 1.7-6.1 3.5-6.1 3.5-2 2.8-1.6 6.7-1.6 6.7s-.4 3.9 1.6 6.7c0 0 1 1.8 6.1 3.5l58.7 21.8s8.5 4.3 13.8-3.4c0 0 2-3.8.5-7 0 0-1.7-4.5-6.1-5.8l-42.1-15.8 42.1-15.8c4.4-1.4 6.1-5.9 6.1-5.9zm248.1 15.1s-1-1.8-6.1-3.5l-58.7-21.9s-8.5-4.3-13.8 3.5c0 0-2 3.8-.5 7 0 0 1.7 4.5 6.1 5.8l42.1 15.8-42.1 15.8c-4.4 1.3-6.1 5.8-6.1 5.8-1.4 3.2.5 7 .5 7 5.3 7.7 13.8 3.5 13.8 3.5l58.7-21.9c5.1-1.7 6.1-3.5 6.1-3.5 2-2.8 1.6-6.7 1.6-6.7s.4-3.9-1.6-6.7zm-142.2-18.6l-3.2-9.4-23.5-16.8-17.1-.4-4.4 3.5-8.2-6.2-.1-6.3-4.8-2.5 2.5-8-5.1-2.4-8.2 4.2-7.8-6.8 4.5-9.8-34.8-14.5h-1l17.4 32.2s.7 1.1 1.9 1.5l24.6 11.1 16 17-8.7 21 11 20.9 12.1 4.5v44.7l8.2 24.6 13.5 4.9-3.7-33.5 19.3-30.1 12.2-1.4 13.5-30.7-25.8-11.1-.3-.2z"/></svg>