<svg xmlns="http://www.w3.org/2000/svg" viewBox="0 0 16 16" enable-background="new 0 0 16 16"><path d="M4 7.5c.1-.2 0-.3 0-.3-.3-.4-.7-.2-.7-.2l-2.9 1.1c-.2 0-.3.1-.3.1-.1.2 0 .4 0 .4s0 .2.1.3c0 0 0 .1.3.2l2.8 1.1s.4.2.7-.2c0 0 .1-.2 0-.3 0 0-.1-.2-.3-.3l-2-.8 2-.8c.2-.1.3-.3.3-.3zm12 .7s0-.1-.3-.2l-2.9-1s-.4-.2-.7.2c0 0-.1.2 0 .3 0 0 .1.2.3.3l2 .8-2 .8c-.2.1-.3.3-.3.3-.1.2 0 .3 0 .3.3.4.7.2.7.2l2.8-1.1c.3-.1.4-.2.4-.2.1-.2 0-.3 0-.3s.1-.2 0-.4zm-6.9-.9l-.2-.4-1.1-.8-.8-.1-.2.2-.4-.3v-.3l-.3-.1.1-.4-.2-.1-.4.2-.4-.3.2-.5-1.6-.7.8 1.6s0 .1.1.1l1.2.5.8.8-.4 1 .5 1 .6.2v2.2l.4 1.2.7.2-.2-1.6.9-1.5.6-.1.7-1.5-1.4-.5z"/></svg>